# xmcd
#
# Track frame offsets: 
#        150
#        19913
#        39955
#        58572
#        71293
#        81393
#        93967
#        108626
#        125129
#        135247
#        147862
#        157913
#        178462
#
# Disc length: 2542 seconds
#
# Revision: 0
# Processed by: cddbd v1.5.2PL0 Copyright (c) Steve Scherf et al.
# Submitted via: ExactAudioCopyFreeDBPlugin 1.0
#
DISCID=af09ec0d
DTITLE=蔡幸娟 - 楊貴妃
DYEAR=1900
DGENRE=
TTITLE0=楊貴妃(華視連續劇“楊貴妃”主題曲)
TTITLE1=楊貴妃 II
TTITLE2=回眸一笑
TTITLE3=春寒賜浴華清池
TTITLE4=朝朝暮暮情
TTITLE5=採蓮曲
TTITLE6=秋雨梧桐葉落時
TTITLE7=夕殿螢飛
TTITLE8=山在虛無飄緲間
TTITLE9=梨花一枝春帶雨
TTITLE10=天上人間會相見
TTITLE11=願作比翼鳥
TTITLE12=宮廷宴舞(音樂)
EXTD=
EXTT0=
EXTT1=
EXTT2=
EXTT3=
EXTT4=
EXTT5=
EXTT6=
EXTT7=
EXTT8=
EXTT9=
EXTT10=
EXTT11=
EXTT12=
PLAYORDER=
